<svg width="64" height="64" viewBox="0 0 64 64" fill="none" xmlns="http://www.w3.org/2000/svg">
  <rect width="64" height="64" rx="16" fill="url(#paint0_linear_ecommerce)"/>
  <path d="M14 16C13.4477 16 13 16.4477 13 17C13 17.5523 13.4477 18 14 18H16.1816L19.5447 38.9453C19.8244 40.7638 21.3767 42 23.2184 42H44C45.6569 42 47 40.6569 47 39C47 37.3431 45.6569 36 44 36H24L22.8184 28H46C47.1046 28 48 27.1046 48 26V20C48 18.8954 47.1046 18 46 18H19.8184L18.5553 9.05472C18.2756 7.23616 16.7233 6 14.8816 6H14C13.4477 6 13 6.44772 13 7C13 7.55228 13.4477 8 14 8H14.8816C15.5549 8 16.1378 8.47308 16.2764 9.13607L17.4447 18H46V26H22.1816L20.7236 16.8639C20.5851 16.2309 20.0021 15.7578 19.3288 15.7578L14 16Z" fill="white"/>
  <circle cx="26" cy="48" r="4" fill="white"/>
  <circle cx="42" cy="48" r="4" fill="white"/>
  <defs>
    <linearGradient id="paint0_linear_ecommerce" x1="0" y1="0" x2="64" y2="64" gradientUnits="userSpaceOnUse">
      <stop stop-color="#059669"/>
      <stop offset="1" stop-color="#3B82F6"/>
    </linearGradient>
  </defs>
</svg> 