<svg width="64" height="64" viewBox="0 0 64 64" fill="none" xmlns="http://www.w3.org/2000/svg">
  <rect width="64" height="64" rx="16" fill="url(#paint0_linear_voice)"/>
  <path d="M32 12C28.6863 12 26 14.6863 26 18V32C26 35.3137 28.6863 38 32 38C35.3137 38 38 35.3137 38 32V18C38 14.6863 35.3137 12 32 12Z" fill="white"/>
  <path d="M20 28V32C20 39.732 26.268 46 34 46V50H28V52H40V50H34V46C41.732 46 48 39.732 48 32V28H46V32C46 38.627 40.627 44 34 44C27.373 44 22 38.627 22 32V28H20Z" fill="white"/>
  <defs>
    <linearGradient id="paint0_linear_voice" x1="0" y1="0" x2="64" y2="64" gradientUnits="userSpaceOnUse">
      <stop stop-color="#EC4899"/>
      <stop offset="1" stop-color="#8B5CF6"/>
    </linearGradient>
  </defs>
</svg>
